<svg width="1239" height="1560" viewBox="0 0 1239 1560" fill="none" xmlns="http://www.w3.org/2000/svg">
<path d="M232 947.5C232 947.5 269 1015.5 285.5 1019C302 1022.5 337 926 337 926C337 926 378 1032.25 394.5 1035C411 1037.75 459.5 913.5 459.5 913.5C459.5 913.5 523.5 1042 549.5 1045C575.5 1048 636.5 906 636.5 906C636.5 906 722 1045 741 1045.5C760 1046 810 912 810 912C810 912 867.5 1036.5 887 1035C906.5 1033.5 938.5 925 938.5 925C938.5 925 994.5 1018 1014 1015C1033.5 1012 1052.5 948.5 1052.5 948.5" stroke="white" stroke-width="7"/>
<path d="M154 1001C251.336 1154.71 270.24 1276.75 283 1515.5C486.441 1358.45 590.55 1263.72 740 1070.5" stroke="white" stroke-width="7"/>
<path d="M1128 998.5C1032.21 1188.45 1018.02 1307.59 1006.5 1524.5C772.433 1337.07 668.478 1235.09 550 1071" stroke="white" stroke-width="7"/>
<path d="M219.5 1128C251.217 1103.25 265.797 1085.63 283.5 1044.5C372.471 1234.71 411.753 1346.11 472.5 1549C642.59 1364.93 734.871 1259.08 887.5 1060C936.138 1144.25 970.667 1180.51 1039 1235" stroke="white" stroke-width="7"/>
<path d="M250.5 1213.5C311.554 1166.73 342.655 1133.39 392 1060C548.649 1240.46 620.26 1350.99 739.5 1553C857.933 1364.21 918.014 1251.38 1016 1040C1035.2 1068.69 1049.14 1083 1079.5 1105.5" stroke="white" stroke-width="7"/>
<path d="M269.5 1339C392.384 1260.93 452.242 1200.92 546 1070.5" stroke="white" stroke-width="7"/>
<path d="M740 1072.5C839.603 1226.62 899.684 1303.94 1014 1426.5" stroke="white" stroke-width="7"/>
<path d="M153 987C273.5 1084 1007.5 1092 1126.5 987" stroke="#FF3E3E" stroke-width="26"/>
<path d="M1129.5 979.5C1129.5 981.313 1128.58 984.674 1123.3 989.596C1118.02 994.507 1109.54 999.837 1097.46 1005.27C1073.38 1016.11 1037.77 1026.18 992.776 1034.75C903.002 1051.84 778.447 1062.5 640.5 1062.5C502.553 1062.5 377.998 1051.84 288.224 1034.75C243.235 1026.18 207.616 1016.11 183.542 1005.27C171.465 999.837 162.982 994.507 157.704 989.596C152.415 984.674 151.5 981.313 151.5 979.5C151.5 977.687 152.415 974.326 157.704 969.404C162.982 964.493 171.465 959.163 183.542 953.725C207.616 942.887 243.235 932.818 288.224 924.251C377.998 907.155 502.553 896.5 640.5 896.5C778.447 896.5 903.002 907.155 992.776 924.251C1037.77 932.818 1073.38 942.887 1097.46 953.725C1109.54 959.163 1118.02 964.493 1123.3 969.404C1128.58 974.326 1129.5 977.687 1129.5 979.5Z" stroke="#FF3E3E" stroke-width="25"/>
<rect x="504" y="855" width="249" height="38" fill="#FF3E3E"/>
<mask id="path-11-inside-1" fill="white">
<rect width="1239" height="855" rx="33"/>
</mask>
<rect width="1239" height="855" rx="33" stroke="#E9E9E9" stroke-width="100" mask="url(#path-11-inside-1)"/>
<mask id="path-12-inside-2" fill="white">
<rect x="240" y="175" width="760" height="505" rx="10"/>
</mask>
<rect x="240" y="175" width="760" height="505" rx="10" stroke="#FF4747" stroke-width="100" mask="url(#path-12-inside-2)"/>
</svg>
