<svg width="992" height="584" viewBox="0 0 992 584" fill="none" xmlns="http://www.w3.org/2000/svg">
<path d="M10 25C107.336 178.711 126.24 300.752 139 539.5C342.441 382.445 446.55 287.723 596 94.5" stroke="white" stroke-width="7"/>
<path d="M984 22.5C888.213 212.446 874.018 331.585 862.5 548.5C628.433 361.065 524.478 259.088 406 95" stroke="white" stroke-width="7"/>
<path d="M75.5 152C107.217 127.253 121.797 109.633 139.5 68.5C228.471 258.71 267.753 370.114 328.5 573C498.59 388.933 590.871 283.084 743.5 84C792.138 168.248 826.667 204.513 895 259" stroke="white" stroke-width="7"/>
<path d="M106.5 237.5C167.554 190.733 198.655 157.39 248 84C404.649 264.464 476.26 374.985 595.5 577C713.933 388.21 774.014 275.38 872 64C891.196 92.687 905.141 107.002 935.5 129.5" stroke="white" stroke-width="7"/>
<path d="M125.5 363C248.384 284.934 308.242 224.92 402 94.5" stroke="white" stroke-width="7"/>
<path d="M596 96.5C695.603 250.624 755.684 327.942 870 450.5" stroke="white" stroke-width="7"/>
<path d="M9 11C129.5 108 863.5 116 982.5 11" stroke="#FF3E3E" stroke-width="26"/>
</svg>
